<svg width="82" height="82" viewBox="0 0 82 82" fill="none" xmlns="http://www.w3.org/2000/svg">
<circle cx="41" cy="41" r="41" fill="url(#paint0_linear_369_374)"/>
<path d="M18 27C18 23.6863 20.6863 21 24 21H60C63.3137 21 66 23.6863 66 27V55C66 58.3137 63.3137 61 60 61H24C20.6863 61 18 58.3137 18 55V27Z" fill="url(#paint1_linear_369_374)"/>
<path d="M18.032 55.6239L25.9999 45L29.9999 51L39.9999 37L45.9999 46L58.9999 29L65.9999 38.3333V55C65.9999 58.3137 63.3136 61 59.9999 61H23.9999C20.8969 61 18.3441 58.6444 18.032 55.6239Z" fill="url(#paint2_linear_369_374)"/>
<path d="M43 37C43 38.6569 41.6569 40 40 40C38.3431 40 37 38.6569 37 37C37 35.3431 38.3431 34 40 34C41.6569 34 43 35.3431 43 37Z" fill="url(#paint3_linear_369_374)"/>
<path d="M33 51C33 52.6569 31.6569 54 30 54C28.3431 54 27 52.6569 27 51C27 49.3431 28.3431 48 30 48C31.6569 48 33 49.3431 33 51Z" fill="url(#paint4_linear_369_374)"/>
<path d="M29 45C29 46.6569 27.6569 48 26 48C24.3431 48 23 46.6569 23 45C23 43.3431 24.3431 42 26 42C27.6569 42 29 43.3431 29 45Z" fill="url(#paint5_linear_369_374)"/>
<path d="M49 46C49 47.6569 47.6569 49 46 49C44.3431 49 43 47.6569 43 46C43 44.3431 44.3431 43 46 43C47.6569 43 49 44.3431 49 46Z" fill="url(#paint6_linear_369_374)"/>
<path d="M62 29C62 30.6569 60.6569 32 59 32C57.3431 32 56 30.6569 56 29C56 27.3431 57.3431 26 59 26C60.6569 26 62 27.3431 62 29Z" fill="url(#paint7_linear_369_374)"/>
<defs>
<linearGradient id="paint0_linear_369_374" x1="41" y1="0" x2="41" y2="82" gradientUnits="userSpaceOnUse">
<stop stop-color="#37729F"/>
<stop offset="1" stop-color="#47A6D3"/>
</linearGradient>
<linearGradient id="paint1_linear_369_374" x1="42" y1="21" x2="42" y2="61" gradientUnits="userSpaceOnUse">
<stop stop-color="white" stop-opacity="0.5"/>
<stop offset="1" stop-color="white" stop-opacity="0"/>
</linearGradient>
<linearGradient id="paint2_linear_369_374" x1="42.016" y1="29" x2="42.016" y2="61" gradientUnits="userSpaceOnUse">
<stop stop-color="white" stop-opacity="0.5"/>
<stop offset="1" stop-color="white" stop-opacity="0"/>
</linearGradient>
<linearGradient id="paint3_linear_369_374" x1="39.6471" y1="34" x2="39.6471" y2="40" gradientUnits="userSpaceOnUse">
<stop stop-color="white" stop-opacity="0.8"/>
<stop offset="1" stop-color="white" stop-opacity="0"/>
</linearGradient>
<linearGradient id="paint4_linear_369_374" x1="29.6471" y1="48" x2="29.6471" y2="54" gradientUnits="userSpaceOnUse">
<stop stop-color="white" stop-opacity="0.8"/>
<stop offset="1" stop-color="white" stop-opacity="0"/>
</linearGradient>
<linearGradient id="paint5_linear_369_374" x1="25.6471" y1="42" x2="25.6471" y2="48" gradientUnits="userSpaceOnUse">
<stop stop-color="white" stop-opacity="0.8"/>
<stop offset="1" stop-color="white" stop-opacity="0"/>
</linearGradient>
<linearGradient id="paint6_linear_369_374" x1="45.6471" y1="43" x2="45.6471" y2="49" gradientUnits="userSpaceOnUse">
<stop stop-color="white" stop-opacity="0.8"/>
<stop offset="1" stop-color="white" stop-opacity="0"/>
</linearGradient>
<linearGradient id="paint7_linear_369_374" x1="58.6471" y1="26" x2="58.6471" y2="32" gradientUnits="userSpaceOnUse">
<stop stop-color="white" stop-opacity="0.8"/>
<stop offset="1" stop-color="white" stop-opacity="0"/>
</linearGradient>
</defs>
</svg>
